# xmcd
#
# Track frame offsets: 
#        150
#        30151
#        56053
#        73161
#        95316
#        111821
#        136326
#        147891
#        169946
#        188526
#        211871
#
# Disc length: 3022 seconds
#
# Revision: 13
# Processed by: cddbd v1.4PL0 Copyright (c) Steve Scherf et al.
# Submitted via: ExactAudioCopy v0.90b4
#
DISCID=940bcc0b
DTITLE=WAITS Tom - Small Change
DYEAR=1976
DGENRE=Soul
TTITLE0=Tom Traubert's Blues
TTITLE1=Step Right Up
TTITLE2=Jitterbug Boy
TTITLE3=I Wish I Was In New Orleans
TTITLE4=The Piano Has Been Drinking
TTITLE5=Invitation To The Blues
TTITLE6=Pasties And A G-String
TTITLE7=Bad Liver And A Broken Heart
TTITLE8=The One That Got Away
TTITLE9=Small Change
TTITLE10=I Can't Wait To Get Off Work
EXTD=YEAR: 1976 ID3G: 0
EXTT0=
EXTT1=
EXTT2=
EXTT3=
EXTT4=
EXTT5=
EXTT6=
EXTT7=
EXTT8=
EXTT9=
EXTT10=
PLAYORDER=
